# xmcd
#
# Track frame offsets:
#	150
#	15048
#	24061
#	36365
#	49152
#	55674
#	72225
#	90666
#	102865
#	114865
#	121641
#	139390
#	148724
#
# Disc length: 2132 seconds
# Revision: 0
# Processed by: cddbd v1.5.2PL0 Copyright (c) Steve Scherf et al.
# Submitted via: dBpowerAMP V12.0
#
DISCID=9d08520d
DTITLE=Summit Grass - Blades of Bluegrass
DYEAR=1900
DGENRE=Bluegrass
TTITLE0=Mountain Dew
TTITLE1=Truck Drivin' Man
TTITLE2=Blue Moon of Kentucky
TTITLE3=Uncloudy day
TTITLE4=Cripple Creek
TTITLE5=Sing Me Back Home
TTITLE6=Bringing Mary Home
TTITLE7=John Hardy
TTITLE8=I'll Fly Away
TTITLE9=Theme Time
TTITLE10=Long Black veil
TTITLE11=Salty Dog Blues
TTITLE12=Grandfather's Clock
EXTD=
EXTT0=
EXTT1=
EXTT2=
EXTT3=
EXTT4=
EXTT5=
EXTT6=
EXTT7=
EXTT8=
EXTT9=
EXTT10=
EXTT11=
EXTT12=
PLAYORDER=
